<svg xmlns="http://www.w3.org/2000/svg" width="360" height="78" viewBox="0 0 360 78" role="img" aria-label="Donate with NOWPayments">
  <defs>
    <linearGradient id="g" x1="0" y1="0" x2="1" y2="1">
      <stop offset="0" stop-color="#22c55e"/>
      <stop offset="1" stop-color="#0f766e"/>
    </linearGradient>
    <filter id="s" x="-20%" y="-40%" width="140%" height="180%">
      <feDropShadow dx="0" dy="10" stdDeviation="10" flood-color="#020617" flood-opacity="0.45"/>
    </filter>
  </defs>
  <rect x="4" y="4" width="352" height="70" rx="22" fill="#0f172a" filter="url(#s)"/>
  <rect x="5" y="5" width="350" height="68" rx="21" fill="url(#g)" opacity="0.96"/>
  <rect x="18" y="17" width="44" height="44" rx="15" fill="rgba(255,255,255,0.2)"/>
  <path d="M40 25c7 0 13 6 13 14S47 53 40 53 27 47 27 39s6-14 13-14Zm0 7c-4 0-6 3-6 7s2 7 6 7 6-3 6-7-2-7-6-7Z" fill="#fff"/>
  <text x="78" y="34" fill="#ecfdf5" font-family="Inter, Segoe UI, Arial, sans-serif" font-size="15" font-weight="700">Crypto donation</text>
  <text x="78" y="54" fill="#dcfce7" font-family="Inter, Segoe UI, Arial, sans-serif" font-size="18" font-weight="800">NOWPayments</text>
</svg>
